<svg width="17" height="16" viewBox="0 0 17 16" fill="none" xmlns="http://www.w3.org/2000/svg">
<path d="M1.79688 6V4.66667C1.79688 2.66667 3.13021 1.33333 5.13021 1.33333H11.7969C13.7969 1.33333 15.1302 2.66667 15.1302 4.66667V6" stroke="#022322" stroke-width="1.5" stroke-miterlimit="10" stroke-linecap="round" stroke-linejoin="round"/>
<path d="M1.79688 10V11.3333C1.79688 13.3333 3.13021 14.6667 5.13021 14.6667H11.7969C13.7969 14.6667 15.1302 13.3333 15.1302 11.3333V10" stroke="#022322" stroke-width="1.5" stroke-miterlimit="10" stroke-linecap="round" stroke-linejoin="round"/>
<path d="M4.93066 6.17334L8.464 8.22001L11.9707 6.18669" stroke="#022322" stroke-width="1.5" stroke-linecap="round" stroke-linejoin="round"/>
<path d="M8.46387 11.8467V8.21334" stroke="#022322" stroke-width="1.5" stroke-linecap="round" stroke-linejoin="round"/>
<path d="M7.63735 4.19333L5.50402 5.38002C5.02402 5.64669 4.62402 6.32001 4.62402 6.87335V9.13336C4.62402 9.68669 5.01735 10.36 5.50402 10.6267L7.63735 11.8133C8.09068 12.0667 8.83735 12.0667 9.29735 11.8133L11.4307 10.6267C11.9107 10.36 12.3107 9.68669 12.3107 9.13336V6.87335C12.3107 6.32001 11.9174 5.64669 11.4307 5.38002L9.29735 4.19333C8.83735 3.93333 8.09068 3.93333 7.63735 4.19333Z" stroke="#022322" stroke-width="1.5" stroke-linecap="round" stroke-linejoin="round"/>
</svg>
