<svg width="29" height="26" viewBox="0 0 29 26" fill="none" xmlns="http://www.w3.org/2000/svg">
<path fill-rule="evenodd" clip-rule="evenodd" d="M10.988 2.02839C12.5483 -0.676129 16.4517 -0.67613 18.012 2.02839L27.9514 19.2567C29.5108 21.9598 27.56 25.3374 24.4394 25.3374H4.56057C1.43997 25.3374 -0.510833 21.9597 1.0486 19.2567L10.988 2.02839ZM14.5003 9.11921C15.0601 9.11921 15.5139 9.57303 15.5139 10.1328V15.201C15.5139 15.7608 15.0601 16.2146 14.5003 16.2146C13.9405 16.2146 13.4867 15.7608 13.4867 15.201V10.1328C13.4867 9.57303 13.9405 9.11921 14.5003 9.11921ZM14.5003 20.2692C15.0601 20.2692 15.5139 19.8153 15.5139 19.2555C15.5139 18.6957 15.0601 18.2419 14.5003 18.2419C13.9405 18.2419 13.4867 18.6957 13.4867 19.2555C13.4867 19.8153 13.9405 20.2692 14.5003 20.2692Z" fill="#DC3545"/>
</svg>
