<svg width="25" height="24" viewBox="0 0 25 24" fill="none" xmlns="http://www.w3.org/2000/svg">
<path d="M21.8 7.57969H16.22C15.83 7.57969 15.52 7.26969 15.52 6.87969C15.52 6.48969 15.83 6.17969 16.22 6.17969H21.8C22.19 6.17969 22.5 6.48969 22.5 6.87969C22.5 7.26969 22.19 7.57969 21.8 7.57969Z" fill="#022322"/>
<path d="M6.92 7.57969H3.2C2.81 7.57969 2.5 7.26969 2.5 6.87969C2.5 6.48969 2.81 6.17969 3.2 6.17969H6.92C7.31 6.17969 7.62 6.48969 7.62 6.87969C7.62 7.26969 7.3 7.57969 6.92 7.57969Z" fill="#022322"/>
<path d="M10.64 10.8297C12.8215 10.8297 14.59 9.06121 14.59 6.87969C14.59 4.69816 12.8215 2.92969 10.64 2.92969C8.45848 2.92969 6.69 4.69816 6.69 6.87969C6.69 9.06121 8.45848 10.8297 10.64 10.8297Z" fill="#022322"/>
<path d="M21.8 17.8102H18.08C17.69 17.8102 17.38 17.5002 17.38 17.1102C17.38 16.7202 17.69 16.4102 18.08 16.4102H21.8C22.19 16.4102 22.5 16.7202 22.5 17.1102C22.5 17.5002 22.19 17.8102 21.8 17.8102Z" fill="#022322"/>
<path d="M8.78 17.8102H3.2C2.81 17.8102 2.5 17.5002 2.5 17.1102C2.5 16.7202 2.81 16.4102 3.2 16.4102H8.78C9.17 16.4102 9.48 16.7202 9.48 17.1102C9.48 17.5002 9.16 17.8102 8.78 17.8102Z" fill="#022322"/>
<path d="M14.36 21.0699C16.5415 21.0699 18.31 19.3014 18.31 17.1199C18.31 14.9384 16.5415 13.1699 14.36 13.1699C12.1785 13.1699 10.41 14.9384 10.41 17.1199C10.41 19.3014 12.1785 21.0699 14.36 21.0699Z" fill="#022322"/>
</svg>
