<svg width="17" height="16" viewBox="0 0 17 16" fill="none" xmlns="http://www.w3.org/2000/svg">
<path d="M11.3092 1.33333H5.97591C3.64258 1.33333 2.64258 2.66667 2.64258 4.66667V11.3333C2.64258 13.3333 3.64258 14.6667 5.97591 14.6667H11.3092C13.6426 14.6667 14.6426 13.3333 14.6426 11.3333V4.66667C14.6426 2.66667 13.6426 1.33333 11.3092 1.33333ZM5.97591 8.16667H8.64258C8.91591 8.16667 9.14258 8.39333 9.14258 8.66667C9.14258 8.94 8.91591 9.16667 8.64258 9.16667H5.97591C5.70258 9.16667 5.47591 8.94 5.47591 8.66667C5.47591 8.39333 5.70258 8.16667 5.97591 8.16667ZM11.3092 11.8333H5.97591C5.70258 11.8333 5.47591 11.6067 5.47591 11.3333C5.47591 11.06 5.70258 10.8333 5.97591 10.8333H11.3092C11.5826 10.8333 11.8092 11.06 11.8092 11.3333C11.8092 11.6067 11.5826 11.8333 11.3092 11.8333ZM12.9759 6.16667H11.6426C10.6292 6.16667 9.80925 5.34667 9.80925 4.33333V3C9.80925 2.72667 10.0359 2.5 10.3092 2.5C10.5826 2.5 10.8092 2.72667 10.8092 3V4.33333C10.8092 4.79333 11.1826 5.16667 11.6426 5.16667H12.9759C13.2492 5.16667 13.4759 5.39333 13.4759 5.66667C13.4759 5.94 13.2492 6.16667 12.9759 6.16667Z" fill="#022322"/>
</svg>
