<svg width="16" height="17" viewBox="0 0 16 17" fill="none" xmlns="http://www.w3.org/2000/svg">
<path d="M4.28005 7.7333C3.98118 7.19649 3.408 6.83333 2.75 6.83333C1.7835 6.83333 1 7.61684 1 8.58333C1 9.54983 1.7835 10.3333 2.75 10.3333C3.408 10.3333 3.98118 9.97018 4.28005 9.43336M4.28005 7.7333C4.42017 7.98498 4.5 8.27484 4.5 8.58333C4.5 8.89183 4.42017 9.18168 4.28005 9.43336M4.28005 7.7333L11.7199 3.60003M4.28005 9.43336L11.7199 13.5666M11.7199 13.5666C11.5798 13.8183 11.5 14.1082 11.5 14.4167C11.5 15.3832 12.2835 16.1667 13.25 16.1667C14.2165 16.1667 15 15.3832 15 14.4167C15 13.4502 14.2165 12.6667 13.25 12.6667C12.592 12.6667 12.0188 13.0298 11.7199 13.5666ZM11.7199 3.60003C12.0188 4.13685 12.592 4.5 13.25 4.5C14.2165 4.5 15 3.7165 15 2.75C15 1.7835 14.2165 1 13.25 1C12.2835 1 11.5 1.7835 11.5 2.75C11.5 3.0585 11.5798 3.34835 11.7199 3.60003Z" stroke="#1F2937" stroke-width="1.5" stroke-linecap="round" stroke-linejoin="round"/>
</svg>
